<?xml version="1.0" encoding="UTF-8" standalone="no"?>
<svg width="240px" height="174px" viewBox="0 0 240 174" version="1.1" xmlns="http://www.w3.org/2000/svg" xmlns:xlink="http://www.w3.org/1999/xlink">
    <defs></defs>
    <g id="Page-1" stroke="none" stroke-width="1" fill="none" fill-rule="evenodd">
        <g id="Design-v1" transform="translate(-120.000000, -11.000000)">
            <g id="Masthead" transform="translate(-2.000000, -33.000000)">
                <g id="logo" transform="translate(122.000000, 44.000000)">
                    <rect id="Rectangle-261" fill="#3F3F3F" x="98.1113133" y="147.201312" width="1.94164269" height="19.3963915"></rect>
                    <ellipse id="Oval-14-Copy" fill="#3F3F3F" cx="99.0821347" cy="168.537343" rx="4.85410673" ry="4.84909787"></ellipse>
                    <path d="M66.9866729,73.5855659 C66.9866729,73.5855659 239.876961,89.0338741 239.909587,89.1026791 C238.777334,108.847785 236.997123,148.261673 236.997123,148.261673 L78.6365291,164.748606 L66.9866729,73.5855659 Z" id="Rectangle-54-Copy-4" fill="#72AFA0" transform="translate(153.448130, 119.167086) scale(-1, 1) translate(-153.448130, -119.167086) "></path>
                    <path d="M1.11022302e-16,16.366211 L194.280984,30.9135046 L194.280984,91.0423182 L11.6498562,107.529251 L1.11022302e-16,16.366211 Z" id="Rectangle-54-Copy-5" fill="#EA4B36"></path>
                    <path d="M37.5910886,72.1487961 L37.5910886,69.4638327 L32.388093,59.5914286 L29.2497782,59.5914286 L29.2497782,68.1006974 L33.1726717,68.92684 L33.1726717,72.1487961 L18.5547315,72.1487961 L18.5547315,68.92684 L22.0233953,68.1006974 L22.0233953,46.4557613 L18.5547315,45.6296187 L18.5547315,42.4076626 L36.1871057,42.4076626 C37.5360372,42.4076626 38.7266579,42.5246983 39.7590035,42.7587732 C40.7913491,42.9928481 41.7479749,43.4127997 42.6289098,44.0186406 C43.67502,44.7621727 44.5077663,45.7122272 45.1271736,46.8688326 C45.746581,48.025438 46.05628,49.2095639 46.05628,50.4212458 C46.05628,51.6329276 45.7603454,52.8032846 45.1684672,53.9323518 C44.5765891,55.061419 43.7576072,56.0114735 42.7114971,56.7825438 C42.2710296,57.1130025 41.7892756,57.4365718 41.2662205,57.7532613 C40.7431654,58.0699509 40.0962386,58.3522135 39.3254205,58.6000575 C39.4630666,58.7652869 39.6213572,58.9580515 39.8002971,59.1783573 C39.979237,59.3986631 40.151292,59.6465034 40.3164673,59.9218857 L45.3129949,68.1420045 L49.1945948,68.92684 L49.1945948,72.1487961 L37.5910886,72.1487961 Z M37.6323823,47.2405968 C36.8065058,46.6347558 35.6227673,46.3318399 34.0811313,46.3318399 L29.2497782,46.3318399 L29.2497782,55.6672513 L34.2463057,55.6672513 C35.6227665,55.6672513 36.7514474,55.2954908 37.6323823,54.5519588 C38.1279081,54.1388854 38.5201936,53.5881292 38.8092503,52.8996736 C39.0983071,52.211218 39.2428333,51.4676971 39.2428333,50.6690886 C39.2428333,49.9530947 39.0983071,49.2990717 38.8092503,48.7069999 C38.5201936,48.1149281 38.1279081,47.6261319 37.6323823,47.2405968 L37.6323823,47.2405968 Z M52.3604387,72.1487961 L52.3604387,68.92684 L56.2420386,68.1006974 L56.2420386,46.4557613 L52.3604387,45.6296187 L52.3604387,42.4076626 L79.7381063,42.4076626 L79.7381063,51.8669953 L74.7828723,51.8669953 L73.5853575,46.3318399 L63.4684215,46.3318399 L63.4684215,54.8824158 L67.3500214,54.8824158 L68.0520129,51.123467 L72.7594851,51.123467 L72.7594851,62.6481562 L68.0520129,62.6481562 L67.3500214,58.8892074 L63.4684215,58.8892074 L63.4684215,68.1420045 L74.2873489,68.1420045 L75.4435702,62.2350849 L80.6465658,62.2350849 L80.6465658,72.1487961 L52.3604387,72.1487961 Z M109.414452,52.403988 L108.093056,46.4144542 L103.179116,46.4144542 L103.179116,67.976776 L107.556239,68.92684 L107.556239,72.1487961 L91.5756096,72.1487961 L91.5756096,68.92684 L95.9527329,67.976776 L95.9527329,46.4144542 L90.9974989,46.4144542 L89.7173968,52.403988 L85.2989799,52.403988 L85.2989799,42.4076626 L113.832869,42.4076626 L113.832869,52.403988 L109.414452,52.403988 Z M137.273878,72.1487961 L137.273878,69.4638327 L132.070883,59.5914286 L128.932568,59.5914286 L128.932568,68.1006974 L132.855461,68.92684 L132.855461,72.1487961 L118.237521,72.1487961 L118.237521,68.92684 L121.706185,68.1006974 L121.706185,46.4557613 L118.237521,45.6296187 L118.237521,42.4076626 L135.869895,42.4076626 C137.218827,42.4076626 138.409447,42.5246983 139.441793,42.7587732 C140.474139,42.9928481 141.430765,43.4127997 142.311699,44.0186406 C143.35781,44.7621727 144.190556,45.7122272 144.809963,46.8688326 C145.429371,48.025438 145.73907,49.2095639 145.73907,50.4212458 C145.73907,51.6329276 145.443135,52.8032846 144.851257,53.9323518 C144.259379,55.061419 143.440397,56.0114735 142.394287,56.7825438 C141.953819,57.1130025 141.472065,57.4365718 140.94901,57.7532613 C140.425955,58.0699509 139.779028,58.3522135 139.00821,58.6000575 C139.145856,58.7652869 139.304147,58.9580515 139.483087,59.1783573 C139.662027,59.3986631 139.834082,59.6465034 139.999257,59.9218857 L144.995784,68.1420045 L148.877384,68.92684 L148.877384,72.1487961 L137.273878,72.1487961 Z M137.315172,47.2405968 C136.489295,46.6347558 135.305557,46.3318399 133.763921,46.3318399 L128.932568,46.3318399 L128.932568,55.6672513 L133.929095,55.6672513 C135.305556,55.6672513 136.434237,55.2954908 137.315172,54.5519588 C137.810698,54.1388854 138.202983,53.5881292 138.49204,52.8996736 C138.781097,52.211218 138.925623,51.4676971 138.925623,50.6690886 C138.925623,49.9530947 138.781097,49.2990717 138.49204,48.7069999 C138.202983,48.1149281 137.810698,47.6261319 137.315172,47.2405968 L137.315172,47.2405968 Z M177.232334,68.92684 C175.96599,70.1935983 174.486317,71.116115 172.79327,71.6944177 C171.100224,72.2727204 169.05621,72.5618674 166.661168,72.5618674 C164.238597,72.5618674 162.187702,72.2727204 160.50842,71.6944177 C158.829137,71.116115 157.383875,70.234905 156.17259,69.0507614 C154.878717,67.7840031 153.867033,66.1592722 153.137509,64.1765201 C152.407985,62.1937679 152.043228,60.0045119 152.043228,57.6086864 C152.043228,55.1853226 152.407985,52.940991 153.137509,50.8756242 C153.867033,48.8102574 154.92001,47.0616064 156.296471,45.6296187 C157.535285,44.3628604 158.98743,43.4403437 160.652947,42.862041 C162.318465,42.2837383 164.362478,41.9945913 166.785049,41.9945913 C169.042445,41.9945913 171.031401,42.2630849 172.751977,42.8000803 C174.472553,43.3370757 175.993519,44.238939 177.314921,45.5056973 C178.829028,46.9652232 179.902652,48.7001053 180.535823,50.7103957 C181.168995,52.7206861 181.485577,54.7997908 181.485577,56.9477723 C181.485577,59.2609832 181.148349,61.4571236 180.473883,63.5362595 C179.799417,65.6153955 178.718912,67.4122377 177.232334,68.92684 L177.232334,68.92684 Z M171.409934,48.4798107 C170.85935,47.543511 170.17113,46.8550658 169.345253,46.4144542 C168.519377,45.9738426 167.610927,45.7535401 166.619875,45.7535401 C165.628823,45.7535401 164.747901,45.9669581 163.977083,46.3938006 C163.206265,46.8206431 162.586867,47.4195905 162.118871,48.1906608 C160.935114,50.06326 160.343245,52.9409613 160.343245,56.8238509 C160.343245,58.8892177 160.501536,60.6929444 160.818122,62.2350849 C161.134708,63.7772255 161.554522,65.0301959 162.077577,65.9940338 C163.096158,67.8390948 164.692828,68.7616115 166.867636,68.7616115 C167.858688,68.7616115 168.753374,68.5550779 169.551722,68.1420045 C170.350069,67.7289312 170.983231,67.1230993 171.451228,66.3244908 C172.001812,65.4432676 172.428509,64.2866796 172.73133,62.8546919 C173.034151,61.4227042 173.18556,59.6465154 173.18556,57.5260721 C173.18556,55.4607053 173.027269,53.677632 172.710683,52.1767988 C172.394097,50.6759656 171.960519,49.4436485 171.409934,48.4798107 L171.409934,48.4798107 Z" id="RETRO-Copy" fill="#FFFFFF"></path>
                    <path d="M109.008819,117.525576 L107.687424,111.536043 L102.773483,111.536043 L102.773483,133.098364 L107.150607,134.048428 L107.150607,137.270385 L91.1699772,137.270385 L91.1699772,134.048428 L95.5471005,133.098364 L95.5471005,111.536043 L90.5918665,111.536043 L89.3117644,117.525576 L84.8933475,117.525576 L84.8933475,107.529251 L113.427236,107.529251 L113.427236,117.525576 L109.008819,117.525576 Z M141.383015,134.048428 C140.116671,135.315187 138.636998,136.237703 136.943951,136.816006 C135.250904,137.394309 133.206891,137.683456 130.811849,137.683456 C128.389278,137.683456 126.338382,137.394309 124.6591,136.816006 C122.979818,136.237703 121.534556,135.356493 120.32327,134.17235 C119.029397,132.905591 118.017714,131.280861 117.288189,129.298108 C116.558665,127.315356 116.193909,125.1261 116.193909,122.730275 C116.193909,120.306911 116.558665,118.062579 117.288189,115.997213 C118.017714,113.931846 119.07069,112.183195 120.447151,110.751207 C121.685966,109.484449 123.13811,108.561932 124.803628,107.983629 C126.469145,107.405327 128.513159,107.11618 130.93573,107.11618 C133.193125,107.11618 135.182081,107.384673 136.902657,107.921669 C138.623233,108.458664 140.144199,109.360527 141.465602,110.627286 C142.979709,112.086812 144.053332,113.821694 144.686504,115.831984 C145.319676,117.842274 145.636257,119.921379 145.636257,122.069361 C145.636257,124.382572 145.299029,126.578712 144.624563,128.657848 C143.950098,130.736984 142.869592,132.533826 141.383015,134.048428 L141.383015,134.048428 Z M135.560615,113.601399 C135.01003,112.665099 134.32181,111.976654 133.495934,111.536043 C132.670057,111.095431 131.761607,110.875128 130.770555,110.875128 C129.779503,110.875128 128.898582,111.088547 128.127764,111.515389 C127.356946,111.942231 126.737548,112.541179 126.269551,113.312249 C125.085795,115.184848 124.493926,118.06255 124.493926,121.945439 C124.493926,124.010806 124.652216,125.814533 124.968802,127.356673 C125.285388,128.898814 125.705202,130.151784 126.228257,131.115622 C127.246838,132.960683 128.843509,133.8832 131.018317,133.8832 C132.009369,133.8832 132.904055,133.676666 133.702402,133.263593 C134.500749,132.85052 135.133912,132.244688 135.601908,131.446079 C136.152493,130.564856 136.579189,129.408268 136.88201,127.97628 C137.184832,126.544293 137.33624,124.768104 137.33624,122.647661 C137.33624,120.582294 137.17795,118.79922 136.861364,117.298387 C136.544778,115.797554 136.111199,114.565237 135.560615,113.601399 L135.560615,113.601399 Z M185.649771,126.076152 L185.649771,137.270385 L180.942299,137.270385 L180.075133,134.585421 C178.918906,135.68695 177.783343,136.478662 176.66841,136.960581 C175.553476,137.4425 174.170154,137.683456 172.518401,137.683456 C168.581724,137.683456 165.44344,136.513099 163.103457,134.17235 C161.726996,132.822977 160.687784,131.177593 159.985789,129.236148 C159.283794,127.294703 158.932802,125.1261 158.932802,122.730275 C158.932802,120.279373 159.297558,118.014388 160.027082,115.935252 C160.756607,113.856116 161.823348,112.114349 163.227338,110.7099 C164.438623,109.498218 165.83571,108.596355 167.41864,108.004283 C169.00157,107.412211 170.894175,107.11618 173.096512,107.11618 C174.335327,107.11618 175.546594,107.350251 176.73035,107.818401 C177.914106,108.286551 178.822557,108.864845 179.455729,109.5533 L180.116427,107.529251 L185.154248,107.529251 L185.154248,117.938648 L179.827371,117.938648 C179.414433,115.652975 178.705566,113.904324 177.70075,112.692642 C176.695934,111.48096 175.216261,110.875128 173.261686,110.875128 C172.43581,110.875128 171.637475,111.054124 170.866657,111.412121 C170.095839,111.770118 169.462676,112.293337 168.96715,112.981792 C168.196332,114.028245 167.638874,115.343175 167.294759,116.926623 C166.950644,118.510071 166.778589,120.251837 166.778589,122.151975 C166.778589,124.024574 166.929997,125.786994 167.232818,127.439288 C167.53564,129.091581 168.127509,130.482241 169.008444,131.611308 C169.916908,132.850528 171.348406,133.470129 173.30298,133.470129 C174.376619,133.470129 175.243777,133.346208 175.904478,133.098364 C176.565179,132.85052 177.081344,132.471875 177.452988,131.962418 C177.824633,131.452961 178.079274,130.812707 178.21692,130.041637 C178.354566,129.270567 178.423388,128.34805 178.423388,127.274059 L178.423388,126.076152 L175.119899,125.208703 L175.119899,121.945439 L188.953261,121.945439 L188.953261,125.208703 L185.649771,126.076152 Z M216.57869,134.048428 C215.312346,135.315187 213.832673,136.237703 212.139626,136.816006 C210.446579,137.394309 208.402566,137.683456 206.007524,137.683456 C203.584953,137.683456 201.534057,137.394309 199.854775,136.816006 C198.175493,136.237703 196.730231,135.356493 195.518946,134.17235 C194.225072,132.905591 193.213389,131.280861 192.483865,129.298108 C191.754341,127.315356 191.389584,125.1261 191.389584,122.730275 C191.389584,120.306911 191.754341,118.062579 192.483865,115.997213 C193.213389,113.931846 194.266366,112.183195 195.642826,110.751207 C196.881641,109.484449 198.333785,108.561932 199.999303,107.983629 C201.66482,107.405327 203.708834,107.11618 206.131405,107.11618 C208.388801,107.11618 210.377757,107.384673 212.098332,107.921669 C213.818908,108.458664 215.339875,109.360527 216.661277,110.627286 C218.175384,112.086812 219.249007,113.821694 219.882179,115.831984 C220.515351,117.842274 220.831932,119.921379 220.831932,122.069361 C220.831932,124.382572 220.494705,126.578712 219.820239,128.657848 C219.145773,130.736984 218.065267,132.533826 216.57869,134.048428 L216.57869,134.048428 Z M210.75629,113.601399 C210.205706,112.665099 209.517486,111.976654 208.691609,111.536043 C207.865733,111.095431 206.957282,110.875128 205.96623,110.875128 C204.975179,110.875128 204.094257,111.088547 203.323439,111.515389 C202.552621,111.942231 201.933223,112.541179 201.465226,113.312249 C200.28147,115.184848 199.689601,118.06255 199.689601,121.945439 C199.689601,124.010806 199.847891,125.814533 200.164477,127.356673 C200.481063,128.898814 200.900878,130.151784 201.423933,131.115622 C202.442514,132.960683 204.039184,133.8832 206.213992,133.8832 C207.205044,133.8832 208.09973,133.676666 208.898077,133.263593 C209.696424,132.85052 210.329587,132.244688 210.797584,131.446079 C211.348168,130.564856 211.774864,129.408268 212.077686,127.97628 C212.380507,126.544293 212.531915,124.768104 212.531915,122.647661 C212.531915,120.582294 212.373625,118.79922 212.057039,117.298387 C211.740453,115.797554 211.306874,114.565237 210.75629,113.601399 L210.75629,113.601399 Z" id="TO-GO-Copy-2" fill="#FFFFFF"></path>
                    <ellipse id="Oval-14" fill="#3F3F3F" cx="99.0821347" cy="4.84909787" rx="4.85410673" ry="4.84909787"></ellipse>
                    <path d="M98.1113133,8.72837616 L100.052956,8.72837616 C100.052956,8.72837616 100.052956,15.4108062 100.052956,21.0621795 L100.052956,24.1247676 L98.1113133,24.1247676 L98.1113133,8.72837616 Z" id="Rectangle-260" fill="#3F3F3F"></path>
                    <path d="M194.280984,77.6651472 C143.055947,82.2472276 67.0083099,89.0570484 66.9866729,89.1026791 C67.2076072,92.955503 67.4532125,97.5572149 67.7054487,102.468861 L194.280984,91.0423182 L194.280984,77.6651472 Z" id="Rectangle-54-Copy-4" fill="#683321"></path>
                </g>
            </g>
        </g>
    </g>
</svg>